<?xml version="1.0" encoding="UTF-8" standalone="no"?><!-- Generator: Gravit.io --><svg xmlns="http://www.w3.org/2000/svg" xmlns:xlink="http://www.w3.org/1999/xlink" style="isolation:isolate" viewBox="0 0 560 315" width="560pt" height="315pt"><defs><clipPath id="_clipPath_FE3AbH4KBQolDhJhD7BvSAUAWaW1lBB2"><rect width="560" height="315"/></clipPath></defs><g clip-path="url(#_clipPath_FE3AbH4KBQolDhJhD7BvSAUAWaW1lBB2)"><g><g><rect x="370" y="81" width="82" height="35" transform="matrix(1,0,0,1,0,0)" fill="rgb(96,125,139)"/><rect x="370" y="81" width="3" height="35" transform="matrix(1,0,0,1,0,0)" fill="rgb(144,164,174)"/><rect x="244" y="79" width="43" height="50" transform="matrix(1,0,0,1,0,0)" fill="rgb(96,125,139)"/><rect x="287" y="79" width="83" height="47" transform="matrix(1,0,0,1,0,0)" fill="rgb(96,125,139)"/><rect x="168" y="79" width="76" height="21" transform="matrix(1,0,0,1,0,0)" fill="rgb(96,125,139)"/><rect x="171" y="100" width="10" height="23" transform="matrix(1,0,0,1,0,0)" fill="rgb(96,125,139)"/><rect x="181" y="100" width="13" height="19" transform="matrix(1,0,0,1,0,0)" fill="rgb(96,125,139)"/><rect x="194" y="100" width="50" height="26" transform="matrix(1,0,0,1,0,0)" fill="rgb(96,125,139)"/></g><path d=" M 194 125 L 207 148 L 163 220 L 163 226 L 222 236 L 243 222 L 226 204 L 265 148 Q 275.25 156.5 278 157 Q 280.75 157.5 309 157 Q 318.5 150.5 320 148 C 321.5 145.5 321.75 137.75 321 135 Q 320.25 132.25 312 125 L 194 125 Z " fill="rgb(0,0,0)" vector-effect="non-scaling-stroke" stroke-width="2" stroke="rgb(120,144,156)" stroke-linejoin="miter" stroke-linecap="square" stroke-miterlimit="3"/><path d=" M 272 131.5 Q 265 141 265 144 C 265 147 274.75 155 278 156 Q 281.25 157 309 156 Q 318.25 149.25 319 147 C 319.75 144.75 320.5 138 320 136 C 319.5 134 312.75 126 311 126 Q 309.25 126 276.527 126 L 272 131.5 Z " fill="rgb(255,255,255)" vector-effect="non-scaling-stroke" stroke-width="1" stroke="rgb(255,255,255)" stroke-linejoin="miter" stroke-linecap="square" stroke-miterlimit="3"/><path d=" M 284.581 125 Q 288.581 137 292.581 138 L 292.581 142 L 284.581 142 Q 274.581 133.5 274.581 130 Q 274.581 126.5 274.581 125 L 284.581 125 Z " fill="rgb(0,0,0)" vector-effect="non-scaling-stroke" stroke-width="2" stroke="rgb(120,144,156)" stroke-linejoin="miter" stroke-linecap="square" stroke-miterlimit="3"/><path d=" M 208.359 174.174 C 211.859 165.299 219.914 154.495 224.015 156.174 C 227.984 157.799 225.247 168.779 222.359 177.674 C 218.437 189.752 208.577 200.268 205.359 199.174 C 201.246 197.776 204.44 184.111 208.359 174.174 Z " fill="rgb(13,71,161)" vector-effect="non-scaling-stroke" stroke-width="2" stroke="rgb(255,187,0)" stroke-linejoin="miter" stroke-linecap="square" stroke-miterlimit="3"/><path d=" M 182 226.25 C 183.855 224.307 187.689 220 191 220 C 194.311 220 193.755 223.911 194 226.25 C 194.688 232.82 191.227 230.528 188 230 C 184.562 229.438 179.219 229.164 182 226.25 Z " fill="rgb(120,144,156)" vector-effect="non-scaling-stroke" stroke-width="2" stroke="rgb(120,144,156)" stroke-linejoin="miter" stroke-linecap="butt" stroke-miterlimit="3"/><text transform="matrix(1,0,0,1,229.719,108.652)" style="font-family:'Open Sans';font-weight:700;font-size:24px;font-style:normal;fill:#90a4ae;stroke:none;">S. E. E. S.</text><path d=" M 355 99.875 L 355 95.943 Q 350.187 96.755 348 95.943 Q 345.812 95.13 339 86.943 Q 337.625 90.193 338 91.943 Q 338.375 93.693 344 97.943 L 338 97.943 L 338 99.875 L 355 99.875 Z  M 355 100.125 L 355 104.057 Q 350.187 103.245 348 104.057 Q 345.812 104.87 339 113.057 Q 337.625 109.807 338 108.057 Q 338.375 106.307 344 102.057 L 338 102.057 L 338 100.125 L 355 100.125 Z " fill-rule="evenodd" fill="rgb(144,164,174)" vector-effect="non-scaling-stroke" stroke-width="1" stroke="rgb(144,164,174)" stroke-linejoin="miter" stroke-linecap="square" stroke-miterlimit="3"/><path d=" M 203.438 100.818 L 203.438 96.886 Q 208.25 97.698 210.438 96.886 Q 212.625 96.073 219.438 87.886 Q 220.813 91.136 220.438 92.886 Q 220.063 94.636 214.438 98.886 L 220.438 98.886 L 220.438 100.818 L 203.438 100.818 Z  M 203.438 101.068 L 203.438 105 Q 208.25 104.188 210.438 105 Q 212.625 105.813 219.438 114 Q 220.813 110.75 220.438 109 Q 220.063 107.25 214.438 103 L 220.438 103 L 220.438 101.068 L 203.438 101.068 Z " fill-rule="evenodd" fill="rgb(144,164,174)" vector-effect="non-scaling-stroke" stroke-width="1" stroke="rgb(144,164,174)" stroke-linejoin="miter" stroke-linecap="square" stroke-miterlimit="3"/></g></g></svg>