<?xml version="1.0" encoding="UTF-8" standalone="no"?><!-- Generator: Gravit.io --><svg xmlns="http://www.w3.org/2000/svg" xmlns:xlink="http://www.w3.org/1999/xlink" style="isolation:isolate" viewBox="0 0 1440 900" width="1440pt" height="900pt"><defs><clipPath id="_clipPath_arZDwJVjwI3CKsDPrEFTghNsvoRuwA9S"><rect width="1440" height="900"/></clipPath></defs><g clip-path="url(#_clipPath_arZDwJVjwI3CKsDPrEFTghNsvoRuwA9S)"><rect x="-16" y="-13" width="308" height="942" transform="matrix(1,0,0,1,0,0)" fill="rgb(255,255,255)"/><g/><path d=" M 361 0 L 394 18 L 444 35 L 469 41 L 498 72 L 516 142 L 535 241 L 552 315 L 562 393 Q 576 464 576 475 Q 576 486 586 574 L 586 676 L 586 742 Q 585.5 795.5 586 805 Q 586.5 814.5 576 880 L 562 900 L 394 900 L 403 861 L 420 823 L 403 783 L 394 742 L 394 684 L 394 622 L 384 588 L 370 541 L 370 500 L 361 574 L 348 676 L 348 721 L 348 757 L 348 805 L 361 841 L 361 880 L 370 900 L -62 900 L 10 684 L 39 610 L 83 486 L 115 373 L 142 249 L 148 162 L 156 55 L 157.411 0 L 361 0 Z " fill="rgb(0,0,0)" vector-effect="non-scaling-stroke" stroke-width="1" stroke="rgb(0,0,0)" stroke-linejoin="miter" stroke-linecap="square" stroke-miterlimit="3"/><path d=" M 81 0 L 64.178 14.458 L 39 30.533 L 19.168 55 L 19.168 72 L 25 83 L 44.888 118 L 56 153 L 60 187 L 64.178 249 L 70.607 354 L 70.607 413 L 70.607 493 L 70.607 541 L 56 646 L -21 742 L -69 541 L -68 175.206 L -69 0 L 81 0 Z " fill="rgb(0,0,0)" vector-effect="non-scaling-stroke" stroke-width="1" stroke="rgb(0,0,0)" stroke-linejoin="miter" stroke-linecap="square" stroke-miterlimit="3"/><path d=" M 172.545 -22.896 L 285 -10 L 269.935 -1.617 L 234.57 17.673 L 250.645 30.533 L 289.224 65.897 L 289.224 107.692 L 273.15 175.206 L 247.43 271.654 L 224.925 335.953 L 183.131 406.682 L 157.411 470.981 L 105.972 554.57 L 64.178 634.944 L 3.093 721 L -27 748 L 19.168 670.308 L 44.888 589.935 L 70.607 519.206 L 99.542 432.402 L 125 335.953 L 138.121 255.579 L 147.766 191.28 L 153 90 L 157.411 14.458 L 154.196 -25 L 172.545 -22.896 Z " fill="rgb(23,23,23)" vector-effect="non-scaling-stroke" stroke-width="1" stroke="rgb(0,0,0)" stroke-linejoin="miter" stroke-linecap="square" stroke-miterlimit="3"/></g></svg>